<svg width="16" height="23" viewBox="0 0 16 23" fill="none" xmlns="http://www.w3.org/2000/svg">
<path d="M9.20398 11.6306L15.7319 5.95809C15.853 5.85267 15.9385 5.71373 15.9771 5.5597C16.0156 5.40567 16.0054 5.24383 15.9477 5.09563C15.89 4.94743 15.7875 4.81988 15.654 4.7299C15.5204 4.63991 15.3621 4.59173 15.1999 4.59176H12.7999V0.681274H11.1999V6.15596H13.0959L8 10.5842L2.90409 6.15596H4.80006V0.681274H3.20008V4.59176H0.800127C0.637929 4.59173 0.479554 4.63991 0.346004 4.7299C0.212453 4.81988 0.110036 4.94743 0.0523346 5.09563C-0.00536732 5.24383 -0.0156284 5.40567 0.0229123 5.5597C0.061453 5.71373 0.146975 5.85267 0.268136 5.95809L6.79602 11.6306L0.268136 17.3032C0.146975 17.4086 0.061453 17.5476 0.0229123 17.7016C-0.0156284 17.8556 -0.00536732 18.0175 0.0523346 18.1657C0.110036 18.3139 0.212453 18.4414 0.346004 18.5314C0.479554 18.6214 0.637929 18.6695 0.800127 18.6695H3.20008V22.58H4.80006V17.1053H2.90409L8 12.6771L13.0959 17.1053H11.1999V22.58H12.7999V18.6695H15.1999C15.362 18.6694 15.5203 18.6211 15.6537 18.5311C15.7871 18.441 15.8894 18.3135 15.947 18.1653C16.0046 18.0171 16.0148 17.8554 15.9762 17.7014C15.9377 17.5474 15.8522 17.4086 15.7311 17.3032L9.20398 11.6306Z" fill="#0CF2E3"/>
</svg>
