<svg width="495" height="509" viewBox="0 0 495 509" fill="none" xmlns="http://www.w3.org/2000/svg">
<path fill-rule="evenodd" clip-rule="evenodd" d="M357.017 -165.71C428.919 -159.353 435.561 -53.8788 494.104 -13.9972C552.943 26.087 659.688 -0.179015 690.792 61.6732C721 121.742 647.94 183.216 624.87 246.037C602.429 307.143 605.458 378.026 557.607 424.343C505.579 474.703 429.2 522.894 357.017 505.303C283.943 487.495 274.751 390.862 219.837 342.03C175.91 302.967 106.162 298.085 71.5362 251.439C29.2999 194.541 -19.9151 121.248 8.33484 57.1051C36.8407 -7.61889 138.375 -0.692946 199.895 -40.0056C258.179 -77.2502 286.922 -171.906 357.017 -165.71Z" fill="#E6BF17"/>
</svg>
