<svg width="335" height="417" viewBox="0 0 335 417" fill="none" xmlns="http://www.w3.org/2000/svg">
<path fill-rule="evenodd" clip-rule="evenodd" d="M263.415 -80.7858C316.466 -76.0963 321.367 1.72049 364.561 31.1443C407.974 60.7175 486.733 41.339 509.682 86.9722C531.97 131.289 478.064 176.644 461.043 222.992C444.486 268.074 446.72 320.371 411.415 354.542C373.028 391.697 316.673 427.25 263.415 414.272C209.5 401.134 202.717 329.84 162.201 293.813C129.79 264.994 78.3285 261.391 52.781 226.977C21.6181 184.999 -14.6938 130.925 6.14963 83.602C27.1819 35.8501 102.096 40.9599 147.487 11.9559C190.49 -15.5224 211.697 -85.3575 263.415 -80.7858Z" fill="#E6BF17"/>
</svg>
