<svg width="32" height="32" viewBox="0 0 32 32" fill="none" xmlns="http://www.w3.org/2000/svg">
<path d="M25.3334 5.33332H22.6667V3.99999C22.6667 3.64637 22.5263 3.30723 22.2762 3.05718C22.0262 2.80713 21.687 2.66666 21.3334 2.66666C20.9798 2.66666 20.6407 2.80713 20.3906 3.05718C20.1406 3.30723 20.0001 3.64637 20.0001 3.99999V5.33332H12.0001V3.99999C12.0001 3.64637 11.8596 3.30723 11.6096 3.05718C11.3595 2.80713 11.0204 2.66666 10.6667 2.66666C10.3131 2.66666 9.97399 2.80713 9.72394 3.05718C9.47389 3.30723 9.33342 3.64637 9.33342 3.99999V5.33332H6.66675C5.60588 5.33332 4.58847 5.75475 3.83832 6.5049C3.08818 7.25504 2.66675 8.27246 2.66675 9.33332V25.3333C2.66675 26.3942 3.08818 27.4116 3.83832 28.1618C4.58847 28.9119 5.60588 29.3333 6.66675 29.3333H25.3334C26.3943 29.3333 27.4117 28.9119 28.1618 28.1618C28.912 27.4116 29.3334 26.3942 29.3334 25.3333V9.33332C29.3334 8.27246 28.912 7.25504 28.1618 6.5049C27.4117 5.75475 26.3943 5.33332 25.3334 5.33332ZM26.6667 25.3333C26.6667 25.6869 26.5263 26.0261 26.2762 26.2761C26.0262 26.5262 25.687 26.6667 25.3334 26.6667H6.66675C6.31313 26.6667 5.97399 26.5262 5.72394 26.2761C5.47389 26.0261 5.33341 25.6869 5.33341 25.3333V16H26.6667V25.3333ZM26.6667 13.3333H5.33341V9.33332C5.33341 8.9797 5.47389 8.64056 5.72394 8.39051C5.97399 8.14047 6.31313 7.99999 6.66675 7.99999H9.33342V9.33332C9.33342 9.68695 9.47389 10.0261 9.72394 10.2761C9.97399 10.5262 10.3131 10.6667 10.6667 10.6667C11.0204 10.6667 11.3595 10.5262 11.6096 10.2761C11.8596 10.0261 12.0001 9.68695 12.0001 9.33332V7.99999H20.0001V9.33332C20.0001 9.68695 20.1406 10.0261 20.3906 10.2761C20.6407 10.5262 20.9798 10.6667 21.3334 10.6667C21.687 10.6667 22.0262 10.5262 22.2762 10.2761C22.5263 10.0261 22.6667 9.68695 22.6667 9.33332V7.99999H25.3334C25.687 7.99999 26.0262 8.14047 26.2762 8.39051C26.5263 8.64056 26.6667 8.9797 26.6667 9.33332V13.3333Z" fill="#0BE6D8"/>
</svg>
