<svg width="16" height="23" viewBox="0 0 16 23" fill="none" xmlns="http://www.w3.org/2000/svg">
<path d="M3.42857 4.66746C3.42857 3.61145 3.9102 2.5987 4.76751 1.85199C5.62482 1.10529 6.78758 0.685791 8 0.685791C9.21242 0.685791 10.3752 1.10529 11.2325 1.85199C12.0898 2.5987 12.5714 3.61145 12.5714 4.66746V9.89837C13.9691 10.746 15.0197 11.9601 15.5704 13.3639C16.121 14.7676 16.1429 16.2878 15.6329 17.7032C15.1229 19.1185 14.1075 20.3552 12.7347 21.2331C11.3619 22.1111 9.70315 22.5845 8 22.5845C6.29685 22.5845 4.63814 22.1111 3.2653 21.2331C1.89246 20.3552 0.877141 19.1185 0.36712 17.7032C-0.1429 16.2878 -0.121003 14.7676 0.429626 13.3639C0.980255 11.9601 2.03087 10.746 3.42857 9.89837V4.66746ZM4.736 11.5309C3.73734 12.1362 2.98657 13.0033 2.59298 14.006C2.19939 15.0088 2.18353 16.0947 2.5477 17.1059C2.91188 18.117 3.63709 19.0005 4.61775 19.6277C5.59841 20.2549 6.78333 20.5932 8 20.5932C9.21668 20.5932 10.4016 20.2549 11.3823 19.6277C12.3629 19.0005 13.0881 18.117 13.4523 17.1059C13.8165 16.0947 13.8006 15.0088 13.407 14.006C13.0134 13.0033 12.2627 12.1362 11.264 11.5309L10.2857 10.9366V4.66746C10.2857 4.13946 10.0449 3.63308 9.61624 3.25973C9.18759 2.88637 8.60621 2.67662 8 2.67662C7.39379 2.67662 6.81241 2.88637 6.38376 3.25973C5.9551 3.63308 5.71429 4.13946 5.71429 4.66746V10.9366L4.736 11.5309ZM3.42857 15.617H12.5714C12.5714 16.673 12.0898 17.6858 11.2325 18.4325C10.3752 19.1792 9.21242 19.5987 8 19.5987C6.78758 19.5987 5.62482 19.1792 4.76751 18.4325C3.9102 17.6858 3.42857 16.673 3.42857 15.617Z" fill="#0CF2E3"/>
</svg>
