<svg width="64" height="62" viewBox="0 0 64 62" fill="none" xmlns="http://www.w3.org/2000/svg">
<g filter="url(#filter0_d)">
<rect x="8" y="4" width="48" height="48" rx="11" fill="white"/>
</g>
<path d="M41.7657 26.1371L41.6679 25.7222H32.6489V29.5394H38.0376C37.4782 32.1961 34.882 33.5946 32.7614 33.5946C31.2184 33.5946 29.5919 32.9455 28.5154 31.9023C27.9474 31.3431 27.4953 30.6774 27.1849 29.9432C26.8746 29.2091 26.7121 28.4209 26.7067 27.6239C26.7067 26.016 27.4293 24.4077 28.4808 23.3497C29.5322 22.2918 31.1202 21.6999 32.6991 21.6999C34.5073 21.6999 35.8032 22.66 36.2878 23.0979L39.0004 20.3996C38.2047 19.7004 36.0187 17.9385 32.6117 17.9385C29.9831 17.9385 27.4626 18.9454 25.6202 20.7817C23.8021 22.5899 22.861 25.2047 22.861 27.6308C22.861 30.0569 23.7514 32.541 25.5134 34.3635C27.396 36.3071 30.0623 37.3231 32.8077 37.3231C35.3056 37.3231 37.6733 36.3443 39.3608 34.5686C41.0198 32.8205 41.8778 30.4017 41.8778 27.8662C41.8778 26.7987 41.7705 26.1648 41.7657 26.1371Z" fill="#E6BF17"/>
<defs>
<filter id="filter0_d" x="0" y="0" width="64" height="64" filterUnits="userSpaceOnUse" color-interpolation-filters="sRGB">
<feFlood flood-opacity="0" result="BackgroundImageFix"/>
<feColorMatrix in="SourceAlpha" type="matrix" values="0 0 0 0 0 0 0 0 0 0 0 0 0 0 0 0 0 0 127 0"/>
<feOffset dy="4"/>
<feGaussianBlur stdDeviation="4"/>
<feColorMatrix type="matrix" values="0 0 0 0 0 0 0 0 0 0 0 0 0 0 0 0 0 0 0.25 0"/>
<feBlend mode="normal" in2="BackgroundImageFix" result="effect1_dropShadow"/>
<feBlend mode="normal" in="SourceGraphic" in2="effect1_dropShadow" result="shape"/>
</filter>
</defs>
</svg>
