<svg width="32" height="32" viewBox="0 0 32 32" fill="none" xmlns="http://www.w3.org/2000/svg">
<path d="M15.9998 2.66675C8.63984 2.66675 2.6665 8.64008 2.6665 16.0001C2.6665 23.3601 8.63984 29.3334 15.9998 29.3334C23.3598 29.3334 29.3332 23.3601 29.3332 16.0001C29.3332 8.64008 23.3598 2.66675 15.9998 2.66675ZM15.9998 6.66675C18.2132 6.66675 19.9998 8.45341 19.9998 10.6667C19.9998 12.8801 18.2132 14.6667 15.9998 14.6667C13.7865 14.6667 11.9998 12.8801 11.9998 10.6667C11.9998 8.45341 13.7865 6.66675 15.9998 6.66675ZM15.9998 25.6001C12.6665 25.6001 9.71984 23.8934 7.99984 21.3067C8.03984 18.6534 13.3332 17.2001 15.9998 17.2001C18.6532 17.2001 23.9598 18.6534 23.9998 21.3067C22.2798 23.8934 19.3332 25.6001 15.9998 25.6001Z" fill="#C4C4C4"/>
</svg>
