<svg width="20" height="20" viewBox="0 0 20 20" fill="none" xmlns="http://www.w3.org/2000/svg">
<path d="M1.90002 6.73745H8.20002C8.73403 6.73745 9.25605 6.57983 9.70006 6.28451C10.1441 5.9892 10.4901 5.56946 10.6945 5.07837C10.8989 4.58728 10.9523 4.0469 10.8481 3.52556C10.744 3.00422 10.4868 2.52534 10.1092 2.14948C9.73161 1.77361 9.25052 1.51765 8.72677 1.41395C8.20302 1.31025 7.66014 1.36347 7.16678 1.56689C6.67342 1.7703 6.25174 2.11477 5.95506 2.55674C5.65838 2.99871 5.50002 3.51833 5.50002 4.04988" stroke="#0CF2E3" stroke-linecap="round" stroke-linejoin="round"/>
<path d="M2.80005 13.9043H12.7C13.2341 13.9043 13.7561 14.0619 14.2001 14.3572C14.6441 14.6525 14.9902 15.0723 15.1945 15.5634C15.3989 16.0545 15.4523 16.5949 15.3482 17.1162C15.244 17.6375 14.9868 18.1164 14.6092 18.4923C14.2316 18.8681 13.7505 19.1241 13.2268 19.2278C12.703 19.3315 12.1602 19.2783 11.6668 19.0749C11.1734 18.8714 10.7518 18.527 10.4551 18.085C10.1584 17.643 10 17.1234 10 16.5919" stroke="#0CF2E3" stroke-linecap="round" stroke-linejoin="round"/>
<path d="M1 10.3209H16.3C16.834 10.3209 17.356 10.1633 17.8 9.86801C18.2441 9.57269 18.5901 9.15295 18.7945 8.66186C18.9988 8.17077 19.0523 7.63039 18.9481 7.10905C18.8439 6.58772 18.5868 6.10884 18.2092 5.73297C17.8316 5.35711 17.3505 5.10114 16.8267 4.99744C16.303 4.89374 15.7601 4.94697 15.2668 5.15038C14.7734 5.3538 14.3517 5.69827 14.055 6.14024C13.7584 6.58221 13.6 7.10182 13.6 7.63337" stroke="#0CF2E3" stroke-linecap="round" stroke-linejoin="round"/>
</svg>
