<svg width="16" height="23" viewBox="0 0 16 23" fill="none" xmlns="http://www.w3.org/2000/svg">
<path d="M14.6453 10.0008L8.75289 0.754079C8.6674 0.635832 8.55446 0.539434 8.4235 0.472921C8.29253 0.406407 8.14733 0.371704 8 0.371704C7.85267 0.371704 7.70747 0.406407 7.5765 0.472921C7.44554 0.539434 7.3326 0.635832 7.24711 0.754079L1.328 10.0446C0.505676 11.3517 0.047614 12.8495 0 14.3867C0 16.4776 0.842855 18.4829 2.34315 19.9614C3.84344 21.4398 5.87827 22.2704 8 22.2704C10.1217 22.2704 12.1566 21.4398 13.6569 19.9614C15.1571 18.4829 16 16.4776 16 14.3867C15.9489 12.8326 15.4815 11.3194 14.6453 10.0008ZM8 20.5185C6.35041 20.5164 4.769 19.8697 3.60256 18.7202C2.43613 17.5708 1.77989 16.0123 1.77778 14.3867C1.82502 13.1618 2.19841 11.9706 2.86044 10.9328L3.69156 9.62762L12.6462 18.4521C12.0646 19.1014 11.3496 19.6215 10.5486 19.9779C9.74761 20.3343 8.87887 20.5189 8 20.5194V20.5185Z" fill="#0CF2E3"/>
</svg>
