<svg width="16" height="23" viewBox="0 0 16 23" fill="none" xmlns="http://www.w3.org/2000/svg">
<path d="M3.42857 4.66752C3.42857 3.61152 3.9102 2.59876 4.76751 1.85206C5.62482 1.10535 6.78758 0.685852 8 0.685852C9.21242 0.685852 10.3752 1.10535 11.2325 1.85206C12.0898 2.59876 12.5714 3.61152 12.5714 4.66752V9.89843C13.9691 10.7461 15.0197 11.9602 15.5704 13.3639C16.121 14.7677 16.1429 16.2879 15.6329 17.7033C15.1229 19.1186 14.1075 20.3553 12.7347 21.2332C11.3619 22.1112 9.70315 22.5846 8 22.5846C6.29685 22.5846 4.63814 22.1112 3.2653 21.2332C1.89246 20.3553 0.877141 19.1186 0.36712 17.7033C-0.1429 16.2879 -0.121003 14.7677 0.429626 13.3639C0.980255 11.9602 2.03087 10.7461 3.42857 9.89843V4.66752ZM4.736 11.5309C3.73734 12.1362 2.98657 13.0034 2.59298 14.0061C2.19939 15.0088 2.18353 16.0948 2.5477 17.1059C2.91188 18.117 3.63709 19.0005 4.61775 19.6278C5.59841 20.255 6.78333 20.5932 8 20.5932C9.21668 20.5932 10.4016 20.255 11.3823 19.6278C12.3629 19.0005 13.0881 18.117 13.4523 17.1059C13.8165 16.0948 13.8006 15.0088 13.407 14.0061C13.0134 13.0034 12.2627 12.1362 11.264 11.5309L10.2857 10.9367V4.66752C10.2857 4.13952 10.0449 3.63314 9.61624 3.25979C9.18759 2.88643 8.60621 2.67669 8 2.67669C7.39379 2.67669 6.81241 2.88643 6.38376 3.25979C5.9551 3.63314 5.71429 4.13952 5.71429 4.66752V10.9367L4.736 11.5309ZM3.42857 15.6171H12.5714C12.5714 16.6731 12.0898 17.6859 11.2325 18.4326C10.3752 19.1793 9.21242 19.5988 8 19.5988C6.78758 19.5988 5.62482 19.1793 4.76751 18.4326C3.9102 17.6859 3.42857 16.6731 3.42857 15.6171Z" fill="#0CF2E3"/>
</svg>
