<svg width="107" height="20" viewBox="0 0 107 20" fill="none" xmlns="http://www.w3.org/2000/svg">
<path d="M8.888 16.5661C9.064 16.5661 9.152 16.6461 9.152 16.8061V18.1501C9.152 18.2141 9.128 18.2701 9.08 18.3181C9.032 18.3661 8.968 18.3901 8.888 18.3901H0.464C0.288 18.3901 0.2 18.3101 0.2 18.1501V16.8061C0.2 16.6461 0.288 16.5661 0.464 16.5661H3.488C3.616 16.5661 3.68 16.5261 3.68 16.4461V3.24614C3.68 3.07014 3.608 3.00614 3.464 3.05414L0.488 4.15814C0.472 4.15814 0.456 4.16614 0.44 4.18214C0.424 4.18214 0.408 4.17414 0.392 4.15814C0.248 4.15814 0.176 4.06214 0.176 3.87014V2.91014C0.176 2.79814 0.192 2.72614 0.224 2.69414C0.256 2.64614 0.32 2.59814 0.416 2.55014L3.968 0.774136C4.24 0.646136 4.48 0.582136 4.688 0.582136H5.72C5.896 0.582136 5.984 0.678136 5.984 0.870136V16.3981C5.984 16.5101 6.032 16.5661 6.128 16.5661H8.888ZM17.0923 10.9261C18.4683 9.63014 19.4203 8.58214 19.9483 7.78214C20.4763 6.96614 20.7403 6.12614 20.7403 5.26214C20.7403 4.28614 20.3883 3.52614 19.6843 2.98214C18.9803 2.42214 18.1483 2.14214 17.1883 2.14214C16.4363 2.14214 15.6923 2.33414 14.9563 2.71814C14.2203 3.10214 13.5963 3.70214 13.0843 4.51814C13.0363 4.59814 12.9563 4.63814 12.8443 4.63814C12.7803 4.63814 12.7003 4.61414 12.6043 4.56614L11.5483 3.94214C11.4203 3.86214 11.3563 3.76614 11.3563 3.65414C11.3563 3.57414 11.3883 3.49414 11.4523 3.41414C12.1563 2.39014 13.0203 1.62214 14.0443 1.11014C15.0843 0.598136 16.1963 0.342136 17.3803 0.342136C18.4043 0.342136 19.3403 0.534136 20.1883 0.918136C21.0363 1.28614 21.7083 1.84614 22.2043 2.59814C22.7163 3.35014 22.9723 4.26214 22.9723 5.33414C22.9723 6.37414 22.6843 7.34214 22.1083 8.23814C21.5483 9.13414 20.5483 10.2621 19.1083 11.6221L14.2843 16.1581C14.2043 16.2061 14.1643 16.2621 14.1643 16.3261C14.1643 16.4061 14.2523 16.4461 14.4283 16.4461H22.8523C22.9643 16.4461 23.0443 16.4701 23.0923 16.5181C23.1403 16.5501 23.1643 16.6141 23.1643 16.7101V18.1021C23.1643 18.2941 23.0603 18.3901 22.8523 18.3901H11.7163C11.5723 18.3901 11.4683 18.3661 11.4043 18.3181C11.3563 18.2541 11.3323 18.1501 11.3323 18.0061V17.0221C11.3323 16.8461 11.3723 16.6941 11.4523 16.5661C11.5323 16.4381 11.7083 16.2541 11.9803 16.0141L17.0923 10.9261ZM28.2434 18.0061C28.2434 18.1501 28.2114 18.2541 28.1474 18.3181C28.0834 18.3661 27.9714 18.3901 27.8114 18.3901H26.1314C26.0034 18.3901 25.9074 18.3661 25.8434 18.3181C25.7954 18.2701 25.7714 18.1821 25.7714 18.0541V15.9901C25.7714 15.7821 25.8594 15.6781 26.0354 15.6781H28.0034C28.1634 15.6781 28.2434 15.7741 28.2434 15.9661V18.0061ZM42.5951 0.582136C42.7551 0.582136 42.8591 0.606136 42.9071 0.654136C42.9551 0.702136 42.9711 0.790135 42.9551 0.918136L42.8591 2.23814C42.8431 2.35014 42.8191 2.42214 42.7871 2.45414C42.7551 2.48614 42.6671 2.50214 42.5231 2.50214H34.3631C34.1711 2.50214 34.0751 2.59014 34.0751 2.76614L33.6431 7.97414V8.02214C33.6431 8.13414 33.6671 8.21414 33.7151 8.26214C33.7791 8.29414 33.8511 8.29414 33.9311 8.26214C34.6991 7.86214 35.3631 7.57414 35.9231 7.39814C36.4831 7.20614 37.1471 7.11014 37.9151 7.11014C39.0191 7.11014 40.0191 7.31014 40.9151 7.71014C41.8271 8.11014 42.5471 8.71814 43.0751 9.53414C43.6191 10.3501 43.8911 11.3581 43.8911 12.5581C43.8911 13.8061 43.5951 14.8941 43.0031 15.8221C42.4271 16.7341 41.6191 17.4301 40.5791 17.9101C39.5551 18.3901 38.3791 18.6301 37.0511 18.6301C35.8191 18.6301 34.6591 18.4141 33.5711 17.9821C32.4991 17.5501 31.5951 16.9341 30.8591 16.1341C30.7791 16.0221 30.7391 15.9421 30.7391 15.8941C30.7391 15.7981 30.7951 15.7181 30.9071 15.6541L31.9391 14.8141C31.9871 14.7661 32.0351 14.7421 32.0831 14.7421C32.1631 14.7421 32.2511 14.7901 32.3471 14.8861C33.0991 15.5901 33.7871 16.1021 34.4111 16.4221C35.0351 16.7421 35.8191 16.9021 36.7631 16.9021C38.2671 16.9021 39.4511 16.5101 40.3151 15.7261C41.1951 14.9421 41.6351 13.9101 41.6351 12.6301C41.6351 11.4141 41.2511 10.4861 40.4831 9.84614C39.7151 9.19014 38.7391 8.86214 37.5551 8.86214C36.8031 8.86214 36.1151 8.99014 35.4911 9.24614C34.8671 9.48614 34.1791 9.83014 33.4271 10.2781C33.3151 10.3421 33.2431 10.3741 33.2111 10.3741C33.1951 10.3741 33.1231 10.3341 32.9951 10.2541L31.8191 9.58214C31.7551 9.55014 31.6991 9.51814 31.6511 9.48614C31.6191 9.45414 31.6031 9.41414 31.6031 9.36614L31.6511 9.05414L32.2991 0.918136C32.3151 0.774136 32.3471 0.686136 32.3951 0.654136C32.4431 0.606136 32.5871 0.582136 32.8271 0.582136H42.5951ZM63.2384 18.0061C63.2704 18.0381 63.2864 18.0941 63.2864 18.1741C63.2864 18.3181 63.1984 18.3901 63.0224 18.3901H61.3424C61.2464 18.3901 61.1664 18.3741 61.1024 18.3421C61.0384 18.2941 60.9744 18.2141 60.9104 18.1021L57.2864 11.8861C57.2544 11.8061 57.2144 11.7661 57.1664 11.7661C57.1184 11.7501 57.0624 11.7741 56.9984 11.8381L54.4544 14.4061C54.3424 14.5181 54.2864 14.6781 54.2864 14.8861V17.9821C54.2864 18.1421 54.2544 18.2541 54.1904 18.3181C54.1264 18.3661 54.0144 18.3901 53.8544 18.3901H52.6304C52.4864 18.3901 52.3904 18.3661 52.3424 18.3181C52.2944 18.2701 52.2704 18.1821 52.2704 18.0541V0.918136C52.2704 0.694136 52.3584 0.582136 52.5344 0.582136H53.9984C54.1904 0.582136 54.2864 0.686136 54.2864 0.894136V12.0301C54.2864 12.1901 54.3104 12.2701 54.3584 12.2701C54.4064 12.2701 54.4624 12.2221 54.5264 12.1261L60.4544 5.95814C60.6304 5.76614 60.7984 5.67014 60.9584 5.67014H62.4224C62.6144 5.67014 62.7104 5.72614 62.7104 5.83814C62.7104 5.88614 62.6544 5.98214 62.5424 6.12614L58.7504 9.99014C58.6864 10.0861 58.6544 10.1581 58.6544 10.2061C58.6544 10.2541 58.6784 10.3181 58.7264 10.3981L63.2384 18.0061ZM66.1293 18.3901C65.9053 18.3901 65.7933 18.2861 65.7933 18.0781V5.98214C65.7933 5.77414 65.8813 5.67014 66.0573 5.67014H67.4973C67.6573 5.67014 67.7373 5.75814 67.7373 5.93414V7.32614C67.7373 7.51814 67.8173 7.54214 67.9773 7.39814C68.8413 6.69414 69.5773 6.19014 70.1853 5.88614C70.7933 5.58214 71.4733 5.43014 72.2253 5.43014C73.1213 5.43014 73.8573 5.63014 74.4333 6.03014C75.0253 6.43014 75.4253 6.93414 75.6333 7.54214C75.6653 7.59014 75.6973 7.61414 75.7293 7.61414C75.7773 7.61414 75.8573 7.57414 75.9693 7.49414C76.8013 6.79014 77.5453 6.27014 78.2013 5.93414C78.8733 5.59814 79.5773 5.43014 80.3133 5.43014C81.4653 5.43014 82.3613 5.75814 83.0013 6.41414C83.6573 7.07014 83.9853 7.95814 83.9853 9.07814V18.0061C83.9853 18.2621 83.8653 18.3901 83.6253 18.3901H82.2813C82.0733 18.3901 81.9693 18.2861 81.9693 18.0781V9.51014C81.9693 8.71014 81.7773 8.09414 81.3933 7.66214C81.0093 7.23014 80.4333 7.01414 79.6653 7.01414C79.0253 7.01414 78.4253 7.17414 77.8653 7.49414C77.3053 7.79814 76.7613 8.18214 76.2333 8.64614C76.1053 8.77414 76.0173 8.88614 75.9693 8.98214C75.9213 9.07814 75.8973 9.19814 75.8973 9.34214V18.0061C75.8973 18.2621 75.7773 18.3901 75.5373 18.3901H74.1933C73.9853 18.3901 73.8813 18.2861 73.8813 18.0781V9.51014C73.8813 7.84614 73.1133 7.01414 71.5773 7.01414C70.9373 7.01414 70.3453 7.16614 69.8013 7.47014C69.2733 7.75814 68.6093 8.25414 67.8093 8.95814V18.0301C67.8093 18.1581 67.7773 18.2541 67.7133 18.3181C67.6653 18.3661 67.5773 18.3901 67.4493 18.3901H66.1293ZM86.1993 19.4461C86.0073 19.4461 85.9433 19.3741 86.0073 19.2301L92.0073 0.798136C92.0553 0.654136 92.1593 0.582136 92.3193 0.582136H93.3753C93.5353 0.582136 93.6153 0.638136 93.6153 0.750136C93.6153 0.798136 93.5993 0.870136 93.5673 0.966136L87.6633 19.1341C87.5993 19.3421 87.4553 19.4461 87.2313 19.4461H86.1993ZM96.0824 18.3901C95.8744 18.3901 95.7704 18.2861 95.7704 18.0781V0.894136C95.7704 0.686136 95.8584 0.582136 96.0344 0.582136H97.4504C97.6264 0.582136 97.7144 0.678136 97.7144 0.870136V7.27814C97.7144 7.45414 97.7864 7.47814 97.9304 7.35014C98.8424 6.64614 99.6184 6.15014 100.258 5.86214C100.898 5.57414 101.602 5.43014 102.37 5.43014C103.602 5.43014 104.546 5.75814 105.202 6.41414C105.874 7.07014 106.21 7.95814 106.21 9.07814V18.0061C106.21 18.2621 106.09 18.3901 105.85 18.3901H104.506C104.298 18.3901 104.194 18.2861 104.194 18.0781V9.51014C104.194 8.71014 103.986 8.09414 103.57 7.66214C103.17 7.23014 102.546 7.01414 101.698 7.01414C101.026 7.01414 100.41 7.16614 99.8504 7.47014C99.3064 7.75814 98.6184 8.25414 97.7864 8.95814V18.0301C97.7864 18.2701 97.6584 18.3901 97.4024 18.3901H96.0824Z" fill="white"/>
</svg>
